<?xml version="1.0" encoding="utf-8"?>
<svg version="1.1" id="Layer_1" xmlns="http://www.w3.org/2000/svg" xmlns:xlink="http://www.w3.org/1999/xlink" x="0px" y="0px"
	 viewBox="0 0 200 200" enable-background="new 0 0 200 200" xml:space="preserve">
<path d="M199.3,37.4c-7.4,3.2-15.3,5.5-23.6,6.4c8.5-5.1,15-13.1,18-22.7c-7.9,4.7-16.7,8.1-26.1,10
	c-7.5-8-18.1-13-30-13c-22.7,0-41,18.4-41,41c0,3.2,0.3,6.3,1.1,9.3c-34.1-1.7-64.3-18-84.6-42.9c-3.5,6.1-5.6,13.1-5.6,20.6
	c0,14.2,7.2,26.8,18.3,34.2c-6.7-0.2-13.1-2.1-18.6-5.1c0,0.2,0,0.3,0,0.5c0,19.9,14.1,36.5,32.9,40.2c-3.4,1-7.1,1.5-10.8,1.5
	c-2.7,0-5.2-0.3-7.7-0.7c5.2,16.3,20.4,28.2,38.3,28.5c-14.1,11-31.7,17.6-51,17.6c-3.3,0-6.6-0.2-9.8-0.6
	c18.1,11.7,39.7,18.4,62.9,18.4c75.5,0,116.7-62.5,116.7-116.8c0-1.8,0-3.5-0.1-5.3C186.8,52.9,193.8,45.6,199.3,37.4z"/>
</svg>
