<?xml version="1.0" encoding="utf-8"?>
<svg version="1.1" id="Layer_1" xmlns="http://www.w3.org/2000/svg" xmlns:xlink="http://www.w3.org/1999/xlink" x="0px" y="0px"
	 viewBox="0 0 80 80" enable-background="new 0 0 80 80" xml:space="preserve">
<path d="M40,0C17.9,0,0,17.9,0,40s17.9,40,40,40c22.1,0,40-17.9,40-40S62.1,0,40,0z M14,32c0-3.3,2.7-6,6-6
	c3.3,0,6,2.7,6,6c0,3.3-2.7,6-6,6C16.7,38,14,35.3,14,32z M63.6,53.8C63.1,54.8,58,64,40,64c-18,0-23.1-9.2-23.6-10.2
	c-1-2-0.2-4.4,1.8-5.4c2-1,4.3-0.2,5.3,1.7C23.8,50.5,27.2,56,40,56c13,0,16.3-5.6,16.5-5.9c1.1-1.9,3.5-2.6,5.4-1.6
	C63.8,49.5,64.5,51.9,63.6,53.8z M60,38c-3.3,0-6-2.7-6-6c0-3.3,2.7-6,6-6c3.3,0,6,2.7,6,6C66,35.3,63.3,38,60,38z"/>
</svg>
