<?xml version="1.0" encoding="utf-8"?>
<svg version="1.1" id="Layer_1" xmlns="http://www.w3.org/2000/svg" xmlns:xlink="http://www.w3.org/1999/xlink" x="0px" y="0px"
	 viewBox="0 0 200 200" enable-background="new 0 0 200 200" xml:space="preserve">
<g>
	<path d="M104.9,17.4c-3.8,0-47.5,0-47.5,0S9.3,18.6,9.3,59.3s42,36,42,36s0,6.1,0,10.3s5.6,2.8,6.3,11.2
		c-2.8,0-58.4-1.5-58.4,35.4c0,36.9,49,35.1,49,35.1s56.6,2.6,56.6-43.2c0-27.4-32.3-36.3-32.3-47.3c0-11.1,24.3-14.3,24.3-40.2
		c0-15.6-1.4-25-13.7-30.5C83.2,22.1,104.9,24.6,104.9,17.4z M89.6,147.2c1,14.3-14.1,27-33.7,28.3c-19.6,1.3-36.3-9.2-37.2-23.5
		c-1-14.3,14.1-27,33.7-28.3C72,122.4,88.6,132.9,89.6,147.2z M60.7,85.5C49.1,88.7,36,78,31.6,61.6C27.1,45.3,33,29.5,44.6,26.3
		c11.7-3.2,24.7,7.5,29.2,23.8C78.3,66.5,72.4,82.3,60.7,85.5z"/>
	<polygon points="166.3,45.1 166.3,12 145.8,12 145.8,45.1 112.8,45.1 112.8,65.6 145.8,65.6 145.8,98.6 166.3,98.6 
		166.3,65.6 199.3,65.6 199.3,45.1 	"/>
</g>
</svg>
