<svg xmlns:svg="http://www.w3.org/2000/svg" xmlns="http://www.w3.org/2000/svg" width="600" height="162" version="1.1">
  <style>
    .s0{fill:#161312;}
  </style>
  <defs>
    <clipPath clipPathUnits="userSpaceOnUse">
      <path d="m0 0 4802 0 0 1298.8-4802 0L0 0z"/>
    </clipPath>
  </defs>
  <g transform="translate(-85.589293,-376.9046)">
    <g transform="matrix(1.25,0,0,-1.25,85.589293,539.24835)">
      <g transform="scale(0.1,0.1)">
        <g clip-path="url(#clipPath3020)">
          <path d="m925 742.9-403.6 0c-10.4 0-18.9-8.4-18.9-18.9l0-197.3c0-10.4 8.4-18.9 18.9-18.9l157.4 0 0-245.1c0 0-35.4-12.1-133.1-12.1-115.3 0-276.4 42.1-276.4 396.3 0 354.3 167.7 400.9 325.2 400.9 136.3 0 195-24 232.4-35.6 11.7-3.6 22.6 8.1 22.6 18.5l45 190.6c0 4.9-1.6 10.7-7.2 14.7-15.2 10.8-107.7 62.6-341.6 62.6C276.3 1298.8 0 1184.1 0 633.1 0 82.1 316.4 0 583 0c220.8 0 354.7 94.3 354.7 94.3 5.5 3.1 6.1 10.8 6.1 14.3l0 615.4c0 10.4-8.4 18.9-18.8 18.9M3004.8 1232.7c0 10.5-8.3 19-18.7 19l-227.2 0c-10.4 0-18.8-8.5-18.8-19 0 0 0.1-439.1 0.1-439.1l-354.2 0 0 439.1c0 10.5-8.4 19-18.7 19l-227.2 0c-10.3 0-18.8-8.5-18.8-19l0-1189c0-10.5 8.4-19 18.8-19l227.2 0c10.4 0 18.8 8.5 18.8 19l0 508.6 354.2 0c0 0-0.6-508.6-0.6-508.6 0-10.5 8.4-19 18.8-19l227.8 0c10.4 0 18.7 8.5 18.8 19l0 1189M1353.8 1076.7c0 81.8-65.6 147.9-146.5 147.9-80.8 0-146.5-66.1-146.5-147.9 0-81.7 65.7-148 146.5-148 80.9 0 146.5 66.3 146.5 148M1337.5 294.5c0 30.5 0 548.9 0 548.9 0 10.4-8.4 18.9-18.8 18.9l-226.5 0c-10.4 0-19.7-10.7-19.7-21.1 0 0 0-660.5 0-786.4 0-23.1 14.4-30 33-30 0 0 96.7 0 204.1 0 22.4 0 27.9 11 27.9 30.3 0 42.2 0 207.3 0 239.3M3868.3 860.5l-225.5 0c-10.3 0-18.8-8.5-18.8-19l0-583c0 0-57.3-41.9-138.6-41.9-81.3 0-102.9 36.9-102.9 116.5 0 79.7 0 508.4 0 508.4 0 10.5-8.4 19-18.7 19l-228.8 0c-10.3 0-18.8-8.5-18.8-19 0 0 0-310.5 0-546.9 0-236.5 131.8-294.3 313.1-294.3 148.7 0 268.7 82.2 268.7 82.2 0 0 5.7-43.3 8.3-48.4 2.6-5.1 9.3-10.3 16.6-10.3l145.6 0.6c10.3 0 18.8 8.5 18.8 19l-0.1 798.2c0 10.5-8.4 19-18.8 19M4395.7 217.3c-78.2 2.4-131.3 37.9-131.3 37.9l0 376.5c0 0 52.3 32.1 116.6 37.8 81.2 7.3 159.4-17.3 159.4-211 0-204.3-35.3-244.6-144.7-241.3zm88.9 669.9c-128.1 0-215.2-57.1-215.2-57.1l0 402.6c0 10.5-8.4 19-18.7 19l-227.9 0c-10.4 0-18.8-8.5-18.8-19l0-1189c0-10.5 8.4-19 18.8-19 0 0 158.1 0 158.1 0 7.1 0 12.5 3.7 16.5 10.1 3.9 6.4 9.6 54.8 9.6 54.8 0 0 93.2-88.3 269.6-88.3 207.1 0 325.8 105 325.8 471.5 0 366.5-189.7 414.4-317.8 414.4M1990.6 862.4l-170.4 0c0 0-0.3 225.1-0.3 225.2 0 8.5-4.4 12.8-14.2 12.8l-232.3 0c-9 0-13.9-4-13.9-12.6l0-232.7c0 0-116.4-28.1-124.3-30.4-7.8-2.3-13.6-9.5-13.6-18.1l0-146.2c0-10.5 8.4-19 18.8-19l119.1 0c0 0 0-152.9 0-351.8 0-261.3 183.3-287 307-287 56.5 0 124.1 18.2 135.3 22.3 6.8 2.5 10.7 9.5 10.7 17l0.2 160.9c0 10.5-8.9 19-18.8 19-9.9 0-35.3-4-61.5-4-83.7 0-112.1 38.9-112.1 89.3 0 50.4 0 334.3 0 334.3l170.5 0c10.4 0 18.8 8.5 18.8 19l0 183.2c0 10.5-8.4 18.9-18.8 18.9" fill="#161312"/>
        </g>
      </g>
    </g>
  </g>
</svg>
