<?xml version="1.0" encoding="utf-8"?>
<!-- Generator: Adobe Illustrator 19.0.0, SVG Export Plug-In . SVG Version: 6.00 Build 0)  -->
<svg version="1.1" id="Layer_1" xmlns="http://www.w3.org/2000/svg" xmlns:xlink="http://www.w3.org/1999/xlink" x="0px" y="0px"
	 viewBox="0 0 595.3 161.7" style="enable-background:new 0 0 595.3 161.7;" xml:space="preserve">
<style type="text/css">
	.Arched_x0020_Green{fill:url(#SVGID_1_);stroke:#FFFFFF;stroke-width:0.25;stroke-miterlimit:1;}
</style>
<linearGradient id="SVGID_1_" gradientUnits="userSpaceOnUse" x1="0" y1="161.7227" x2="0.7071" y2="161.0156">
	<stop  offset="0" style="stop-color:#20AC4B"/>
	<stop  offset="0.9831" style="stop-color:#19361A"/>
</linearGradient>
<path d="M76.5,103c-15.6,0-26.3-10.9-26.3-25.7v-0.1c0-14.2,11.1-25.9,26.2-25.9c9,0,14.4,2.4,19.6,6.9l-6.9,8.4
	c-3.9-3.2-7.3-5.1-13.1-5.1c-8,0-14.4,7.1-14.4,15.6v0.1C61.7,86.3,68,93,76.8,93c4,0,7.6-1,10.4-3v-7.1H76.1v-9.5h21.7v21.7
	C92.7,99.4,85.6,103,76.5,103"/>
<path d="M131.7,103c-15.4,0-26.5-11.5-26.5-25.7v-0.1c0-14.2,11.2-25.9,26.6-25.9c15.4,0,26.5,11.5,26.5,25.7v0.1
	C158.3,91.4,147.1,103,131.7,103 M146.8,77.1c0-8.6-6.3-15.7-15.1-15.7c-8.9,0-15,7-15,15.6v0.1c0,8.6,6.3,15.7,15.1,15.7
	c8.9,0,15-7,15-15.6V77.1z"/>
<path d="M190,103c-14.4,0-25.1-11.4-25.1-25.8c0-14.3,10.6-25.9,25.3-25.9c9.1,0,14.5,3.2,19.5,7.9l-3.9,4.1
	c-4.2-4-8.9-6.9-15.7-6.9c-11.1,0-19.4,8.9-19.4,20.6c0,11.6,8.4,20.7,19.4,20.7c6.9,0,11.4-2.6,16.1-7.2l3.7,3.6
	C204.8,99.5,199.1,103,190,103"/>
<path d="M265.5,102.2h-6.1l-5.9-13.2h-27.2l-5.9,13.2h-5.8l22.8-50.4h5.3L265.5,102.2z M240,58.4l-11.4,25.5h22.8L240,58.4z"/>
<path d="M308,102.2l-14.5-19.4h-14.3v19.4h-5.6v-50h21.5c11,0,18.1,5.9,18.1,14.9c0,8.4-5.7,13.2-13.6,14.6l15.4,20.4H308z
	 M294.7,57.4h-15.4v20.3h15.4c7.5,0,12.9-3.9,12.9-10.4C307.5,61.1,302.7,57.4,294.7,57.4"/>
<path d="M341.5,102.2h-17.4v-50h17.4c15.7,0,26.6,10.8,26.6,24.9C368,91.2,357.2,102.2,341.5,102.2 M341.5,57.4h-11.7v39.6h11.7
	c12.6,0,20.7-8.6,20.7-19.7C362.2,66.1,354.1,57.4,341.5,57.4"/>
<polygon points="378.7,52.1 384.3,52.1 384.3,96.9 412.5,96.9 412.5,102.2 378.7,102.2 "/>
<polygon points="457,57.3 426.5,57.3 426.5,74.4 453.7,74.4 453.7,79.5 426.5,79.5 426.5,97 457.3,97 457.3,102.2 420.8,102.2 
	420.8,52.1 457,52.1 "/>
<path d="M485.4,74.4c11.1,2.4,16.3,6.5,16.3,14.2c0,8.6-7.1,14.2-17.1,14.2c-7.9,0-14.4-2.6-20.4-8l3.5-4.1
	c5.2,4.7,10.2,7.1,17.1,7.1c6.7,0,11.1-3.5,11.1-8.6c0-4.7-2.5-7.4-13-9.6c-11.5-2.5-16.8-6.2-16.8-14.5c0-8,6.9-13.7,16.4-13.7
	c7.3,0,12.5,2.1,17.6,6.1l-3.3,4.4c-4.6-3.8-9.3-5.4-14.4-5.4c-6.5,0-10.6,3.6-10.6,8.1C471.8,69.4,474.3,72.1,485.4,74.4"/>
<path d="M529.7,74.4c11.1,2.4,16.3,6.5,16.3,14.2c0,8.6-7.1,14.2-17.1,14.2c-7.9,0-14.4-2.6-20.4-8l3.5-4.1
	c5.2,4.7,10.2,7.1,17.1,7.1c6.7,0,11.1-3.5,11.1-8.6c0-4.7-2.5-7.4-13-9.6c-11.5-2.5-16.8-6.2-16.8-14.5c0-8,6.9-13.7,16.4-13.7
	c7.3,0,12.5,2.1,17.6,6.1l-3.3,4.4c-4.6-3.8-9.3-5.4-14.4-5.4c-6.5,0-10.6,3.6-10.6,8.1C516.1,69.4,518.7,72.1,529.7,74.4"/>
</svg>
