<?xml version="1.0" encoding="UTF-8" standalone="no"?>
<svg width="570px" height="570px" viewBox="0 0 570 570" version="1.1" xmlns="http://www.w3.org/2000/svg" xmlns:xlink="http://www.w3.org/1999/xlink" xmlns:sketch="http://www.bohemiancoding.com/sketch/ns">
    <!-- Generator: Sketch 3.3.3 (12072) - http://www.bohemiancoding.com/sketch -->
    <title>Untitled</title>
    <desc>Created with Sketch.</desc>
    <defs>
        <path id="path-1" d="M0,0.61 L850.39,0.61 L850.39,851 L0,851 L0,0.61 Z"></path>
    </defs>
    <g id="Page-1" stroke="none" stroke-width="1" fill="none" fill-rule="evenodd" sketch:type="MSPage">
        <g id="HERE_Logo_MFL_White_RGB" sketch:type="MSLayerGroup" transform="translate(-135.000000, -140.000000)">
            <g id="Group-24">
                <path d="M563.4381,232.5075 C552.9341,220.4775 552.6551,206.5675 563.4381,195.4775 C573.9241,184.9825 587.5261,184.6845 600.4591,195.4775 L563.4381,232.5075 Z M392.8111,403.1435 C382.3071,391.1135 381.9901,376.9525 392.8111,366.1325 C403.2971,355.6005 416.8811,355.3115 430.1391,366.1325 L392.8111,403.1435 Z M529.1901,400.0455 L567.4851,361.7875 L526.1011,320.4495 C492.4761,286.8245 502.3291,268.9235 510.0231,261.2015 C514.9921,256.2705 519.9511,252.5675 523.3381,250.7245 C527.9621,259.6475 534.1211,268.2815 541.8251,275.6785 C581.9531,316.1135 625.7471,310.5685 659.4091,276.6365 C679.4591,256.5775 689.0331,238.0525 691.5081,228.8045 L658.4791,210.5775 C654.4601,219.2025 645.1831,234.0425 634.7261,244.5565 C616.5181,263.0435 599.2491,263.0435 587.5261,253.4885 L656.3201,184.9825 L647.6771,176.3575 C607.2601,135.6055 569.6161,133.4475 535.6841,167.3975 C513.1501,189.9135 510.0231,217.6955 519.9511,242.9935 L494.6251,213.0805 C492.1691,213.9925 487.5261,217.6955 482.9301,222.3195 C469.6251,235.9035 466.5551,256.8655 469.9511,270.7475 L452.9801,256.2705 L419.3091,289.9135 L465.6341,336.1735 C428.9111,305.9535 395.8721,307.4985 365.3361,338.0345 C334.4841,368.9045 336.3171,406.5395 361.9401,437.9965 L357.6231,433.6795 C330.1571,406.2235 303.6041,400.3715 277.3851,426.8975 C261.9681,442.0255 259.4841,456.8285 261.0381,470.0955 L196.2351,405.6185 L158.5911,443.2445 L283.8611,568.8395 L360.4241,568.8395 L307.6321,516.0765 C289.1361,497.8775 283.5811,485.2245 294.9971,473.7895 C303.3061,465.1645 312.8891,465.4625 324.6031,477.1765 L388.1781,541.0675 L426.4361,502.7995 L378.8731,455.2835 C416.5831,486.4525 457.6141,478.7485 488.7921,447.2635 C505.1201,431.2145 514.0801,416.4115 518.3781,406.2235 L484.7351,387.4105 C479.8321,396.0355 472.4161,406.8375 464.4151,415.1645 C445.8721,433.6795 428.6041,433.6795 416.8811,424.1055 L485.0611,355.9165 L529.1901,400.0455 Z" id="Fill-2" fill="#124191" sketch:type="MSShapeGroup"></path>
                <path d="M212,638.091 L219.762,638.091 L235.285,669.934 L250.575,638.091 L258.343,638.091 L258.343,690.533 L251.475,690.533 L251.475,649.864 L237.895,677.474 L231.926,677.474 L218.79,650.465 L218.79,690.533 L212,690.533 L212,638.091 Z" id="Fill-4" fill="#124191" sketch:type="MSShapeGroup"></path>
                <path d="M291.9345,673.1504 C291.8825,673.1504 291.5625,673.0914 290.9685,672.9934 C290.3685,672.9024 289.6185,672.8114 288.7255,672.7394 C287.8315,672.6674 286.8595,672.5964 285.8095,672.5114 C284.7655,672.4394 283.8005,672.4004 282.9135,672.4004 C281.3155,672.4004 279.9655,672.6024 278.8435,672.9934 C277.7215,673.3914 276.8145,673.9204 276.1165,674.5914 C275.4195,675.2694 274.9105,676.0524 274.5845,676.9524 C274.2645,677.8464 274.1015,678.8254 274.1015,679.8614 C274.1015,681.9944 274.8125,683.5924 276.2345,684.6434 C277.6435,685.6734 279.4955,686.1954 281.7915,686.1954 C283.0315,686.1954 284.2445,685.9934 285.4375,685.5684 C286.6315,685.1454 287.7275,684.5514 288.6925,683.7754 C289.6645,683.0054 290.4405,682.0594 291.0405,680.9454 C291.6405,679.8234 291.9345,678.5964 291.9345,677.2524 L291.9345,673.1504 Z M292.3785,690.5324 L292.0845,686.3514 C290.9495,687.9504 289.2795,689.2094 287.0885,690.1224 C284.8965,691.0414 282.6335,691.4984 280.2985,691.4984 C278.8045,691.4984 277.3105,691.3094 275.8175,690.9054 C274.3235,690.5064 272.9865,689.8544 271.7925,688.9604 C270.5985,688.0604 269.6075,686.8674 268.8445,685.3734 C268.0675,683.8934 267.6895,682.0474 267.6895,679.8614 C267.6895,676.0334 268.9285,672.9414 271.4145,670.6064 C273.9065,668.2714 277.6365,667.0974 282.6135,667.0974 C283.4025,667.0974 284.2965,667.1424 285.2945,667.2144 C286.2915,667.2924 287.2315,667.3654 288.1255,667.4434 C289.0255,667.5144 289.8275,667.5864 290.5195,667.6644 C291.2105,667.7434 291.6925,667.8014 291.9345,667.8474 L291.9345,665.6034 C291.9345,662.8704 291.1255,660.9134 289.5145,659.7204 C287.8905,658.5264 285.5945,657.9264 282.6135,657.9264 C279.9265,657.9264 277.6435,658.2394 275.7845,658.8524 C273.9185,659.4724 272.5625,660.0404 271.7085,660.5424 L269.7055,655.7674 C270.1495,655.4674 270.7685,655.1084 271.5705,654.7174 C272.3665,654.3264 273.3455,653.9274 274.5125,653.5564 C275.6805,653.1844 277.0235,652.8714 278.5435,652.6234 C280.0575,652.3824 281.7655,652.2524 283.6505,652.2524 C288.1775,652.2524 291.7645,653.3664 294.3995,655.5714 C297.0345,657.7894 298.3525,661.0114 298.3525,665.2314 L298.3525,690.5324 L292.3785,690.5324 Z" id="Fill-6" fill="#124191" sketch:type="MSShapeGroup"></path>
                <path d="M315.2199,681.6556 C315.9109,682.4456 317.1179,683.2666 318.8329,684.1206 C320.5489,684.9626 322.5969,685.3736 324.9839,685.3736 C328.3239,685.3736 330.9649,684.2846 332.9419,682.0596 C334.9049,679.8556 335.8899,676.3006 335.8899,671.4276 C335.8899,669.5426 335.6819,667.7826 335.2899,666.1706 C334.8919,664.5536 334.2659,663.1636 333.4179,661.9906 C332.5759,660.8166 331.5199,659.9096 330.2549,659.2696 C328.9889,658.6176 327.4759,658.2986 325.7339,658.2986 C322.2579,658.2986 319.6299,659.6226 317.8619,662.2836 C316.1069,664.9516 315.2199,668.7926 315.2199,673.8156 L315.2199,681.6556 Z M308.6519,706.9506 L308.6519,653.2236 L314.7699,653.2236 L315.0699,658.0766 C315.4089,657.4766 315.9109,656.8306 316.5569,656.1396 C317.1959,655.4276 318.0119,654.8026 318.9839,654.2216 C319.9489,653.6676 321.0579,653.1846 322.2969,652.8126 C323.5429,652.4346 324.9649,652.2526 326.5499,652.2526 C329.2959,652.2526 331.6769,652.7606 333.7179,653.7456 C335.7529,654.7366 337.4559,656.1066 338.7929,657.8546 C340.1429,659.5896 341.1339,661.6186 341.7799,663.9336 C342.4189,666.2496 342.7519,668.7406 342.7519,671.4276 C342.7519,675.1066 342.2559,678.1856 341.2579,680.6906 C340.2529,683.1696 338.9559,685.1976 337.3309,686.7626 C335.7269,688.3286 333.8809,689.4506 331.8199,690.1226 C329.7519,690.7936 327.6719,691.1266 325.5849,691.1266 C323.0469,691.1266 320.9669,690.8396 319.3229,690.2716 C317.6789,689.6976 316.3349,689.1106 315.2919,688.5176 L315.2919,706.9506 L308.6519,706.9506 Z" id="Fill-8" fill="#124191" sketch:type="MSShapeGroup"></path>
                <path d="M350.8918,682.4772 C352.1378,683.1162 353.8538,683.8402 356.0448,684.6432 C358.2298,685.4322 360.8188,685.8232 363.8068,685.8232 C365.4378,685.8232 366.8008,685.6932 367.8638,685.4262 C368.9338,685.1452 369.7808,684.7672 370.4078,684.3042 C371.0268,683.8272 371.4708,683.2732 371.7508,682.6532 C372.0188,682.0402 372.1558,681.3552 372.1558,680.6052 C372.1558,679.2682 371.6468,678.1332 370.6298,677.2072 C369.6058,676.2942 367.8248,675.5892 365.2878,675.0872 L360.7408,674.1872 C359.1428,673.8942 357.6688,673.4692 356.2988,672.9222 C354.9298,672.3802 353.7488,671.6632 352.7578,670.8022 C351.7598,669.9282 350.9768,668.8912 350.4098,667.6912 C349.8348,666.4972 349.5478,665.0882 349.5478,663.4382 C349.5478,660.0592 350.8728,657.3522 353.5008,655.3112 C356.1358,653.2762 359.6648,652.2522 364.1068,652.2522 C366.9828,652.2522 369.5728,652.6042 371.8618,653.2952 C374.1508,653.9932 376.0108,654.7572 377.4518,655.6112 L375.3648,660.5422 C375.0118,660.3402 374.4578,660.0922 373.6948,659.7922 C372.9118,659.4912 372.0188,659.2052 371.0078,658.9312 C369.9768,658.6632 368.8748,658.4152 367.6808,658.2262 C366.4808,658.0242 365.2878,657.9262 364.1068,657.9262 C361.3668,657.9262 359.3448,658.3962 358.0538,659.3482 C356.7558,660.2882 356.1158,661.5532 356.1158,663.1382 C356.1158,664.4882 356.5798,665.5642 357.4928,666.3542 C358.4188,667.1562 360.2448,667.8022 362.9848,668.2902 L367.5958,669.1842 C371.1838,669.8962 373.9688,671.0372 375.9578,672.6222 C377.9538,674.2132 378.9458,676.6722 378.9458,680.0122 C378.9458,683.4882 377.6408,686.2732 375.0318,688.3612 C372.4168,690.4542 368.6988,691.4982 363.8788,691.4982 C360.3368,691.4982 357.2708,691.0482 354.6558,690.1552 C352.0468,689.2542 349.9978,688.3212 348.5048,687.3172 L350.8918,682.4772 Z" id="Fill-10" fill="#124191" sketch:type="MSShapeGroup"></path>
                <path d="M402.4526,658.8264 L402.4526,653.2244 L409.5296,653.2244 L409.5296,648.9704 C409.5296,646.7274 409.8106,644.6724 410.3586,642.7674 C410.9126,640.8834 411.7536,639.2654 412.8886,637.9344 C414.0436,636.5904 415.5246,635.5304 417.3696,634.7644 C419.2226,633.9954 421.4076,633.6104 423.9376,633.6104 C425.6276,633.6104 427.1016,633.7154 428.3476,633.9424 C429.5806,634.1644 430.3826,634.3214 430.7276,634.4254 L429.9846,639.4874 C429.7366,639.4414 429.1306,639.3694 428.1516,639.2654 C427.1866,639.1674 426.1826,639.1154 425.1326,639.1154 C422.3006,639.1154 420.0906,639.8854 418.5316,641.3984 C416.9656,642.9114 416.1766,645.6114 416.1766,649.4934 L416.1766,653.2244 L427.7476,653.2244 L427.7476,658.8264 L416.1766,658.8264 L416.1766,690.5324 L409.5296,690.5324 L409.5296,658.8264 L402.4526,658.8264 Z" id="Fill-12" fill="#124191" sketch:type="MSShapeGroup"></path>
                <path d="M450.0708,685.6017 C453.7078,685.6017 456.3908,684.3427 458.1268,681.7987 C459.8648,679.2687 460.7388,675.9617 460.7388,671.8717 C460.7388,669.8957 460.5168,668.0627 460.0668,666.3927 C459.6168,664.7357 458.9578,663.2817 458.1008,662.0687 C457.2198,660.8547 456.1108,659.8897 454.7768,659.1987 C453.4268,658.4937 451.8648,658.1547 450.0708,658.1547 C446.5458,658.1547 443.9008,659.4197 442.1068,661.9437 C440.3168,664.4887 439.4228,667.8017 439.4228,671.8717 C439.4228,676.0007 440.2838,679.3277 442.0288,681.8377 C443.7638,684.3557 446.4478,685.6017 450.0708,685.6017 M450.0708,691.4977 C447.2958,691.4977 444.8268,691.0287 442.6548,690.0827 C440.4928,689.1437 438.6758,687.8067 437.1828,686.0917 C435.6888,684.3757 434.5508,682.3137 433.7548,679.8947 C432.9528,677.4877 432.5618,674.8067 432.5618,671.8717 C432.5618,669.0017 432.9528,666.3407 433.7548,663.9337 C434.5508,661.5207 435.7018,659.4397 437.2148,657.7047 C438.7318,655.9507 440.5708,654.6197 442.7328,653.6737 C444.8988,652.7217 447.3478,652.2517 450.0708,652.2517 C452.8068,652.2517 455.2628,652.7217 457.4288,653.6737 C459.5778,654.6197 461.4228,655.9437 462.9338,657.6587 C464.4538,659.3807 465.6048,661.4487 466.4068,663.8617 C467.1958,666.2687 467.6008,668.9497 467.6008,671.8717 C467.6008,674.8587 467.1958,677.5597 466.4068,679.9667 C465.6048,682.3867 464.4658,684.4477 462.9728,686.1697 C461.4818,687.8847 459.6428,689.2087 457.4608,690.1217 C455.2758,691.0417 452.8068,691.4977 450.0708,691.4977" id="Fill-14" fill="#124191" sketch:type="MSShapeGroup"></path>
                <path d="M498.1619,658.8985 C497.9139,658.7935 497.4189,658.6895 496.7079,658.5985 C495.9839,658.4935 495.2469,658.4555 494.5059,658.4555 C490.9799,658.4555 488.1859,659.9095 486.1179,662.8445 C484.0599,665.7855 483.0229,669.8165 483.0229,674.9375 L483.0229,690.5325 L476.3899,690.5325 L476.3899,653.2235 L482.5079,653.2235 L482.8079,659.5705 C483.2509,658.7155 483.8379,657.8875 484.5489,657.0655 C485.2769,656.2435 486.1309,655.5265 487.1289,654.8995 C488.1199,654.2805 489.2459,653.7715 490.5179,653.3735 C491.7859,652.9765 493.1889,652.7805 494.7279,652.7805 C495.4289,652.7805 496.2249,652.8385 497.1509,652.9565 C498.0769,653.0875 498.6029,653.1715 498.7519,653.2235 L498.1619,658.8985 Z" id="Fill-16" fill="#124191" sketch:type="MSShapeGroup"></path>
                <path d="M531.323,684.3426 L554.175,684.3426 L554.175,690.5326 L524.474,690.5326 L524.474,638.0906 L531.323,638.0906 L531.323,684.3426 Z" id="Fill-18" fill="#124191" sketch:type="MSShapeGroup"></path>
                <mask id="mask-2" sketch:name="Clip 21" fill="white">
                    <use xlink:href="#path-1"></use>
                </mask>
                <g id="Clip-21"></g>
                <path d="M561.917,653.224 L568.538,653.224 L568.538,690.533 L561.917,690.533 L561.917,653.224 Z M569.503,641.131 C569.503,642.475 569.124,643.571 568.355,644.418 C567.585,645.272 566.532,645.684 565.188,645.684 C563.844,645.684 562.791,645.253 562.022,644.385 C561.265,643.512 560.873,642.429 560.873,641.131 C560.873,639.84 561.265,638.763 562.022,637.895 C562.791,637.022 563.844,636.591 565.188,636.591 C566.532,636.591 567.585,637.008 568.355,637.857 C569.124,638.704 569.503,639.787 569.503,641.131 L569.503,641.131 Z" id="Fill-20" fill="#124191" sketch:type="MSShapeGroup" mask="url(#mask-2)"></path>
                <path d="M575.7773,658.8264 L575.7773,653.2244 L582.8473,653.2244 L582.8473,648.9704 C582.8473,646.7274 583.1193,644.6724 583.6663,642.7674 C584.2143,640.8834 585.0493,639.2654 586.1973,637.9344 C587.3423,636.5904 588.8233,635.5304 590.6653,634.7644 C592.5043,633.9954 594.6863,633.6104 597.2203,633.6104 C598.9033,633.6104 600.3743,633.7154 601.6203,633.9424 C602.8593,634.1644 603.6523,634.3214 603.9913,634.4254 L603.2543,639.4874 C603.0023,639.4414 602.3963,639.3694 601.4243,639.2654 C600.4653,639.1674 599.4513,639.1154 598.4213,639.1154 C595.5803,639.1154 593.3753,639.8854 591.8263,641.3984 C590.2613,642.9114 589.4753,645.6114 589.4753,649.4934 L589.4753,653.2244 L601.0263,653.2244 L601.0263,658.8264 L589.4753,658.8264 L589.4753,690.5324 L582.8473,690.5324 L582.8473,658.8264 L575.7773,658.8264 Z" id="Fill-22" fill="#124191" sketch:type="MSShapeGroup" mask="url(#mask-2)"></path>
                <path d="M632.3087,668.3688 C632.0607,665.0428 631.2257,662.4468 629.8177,660.6138 C628.4017,658.7748 626.1127,657.8548 622.9877,657.8548 C619.8117,657.8548 617.4367,658.7808 615.8717,660.6468 C614.3067,662.5118 613.2627,665.0878 612.7837,668.3688 L632.3087,668.3688 Z M636.8617,688.8108 C636.6007,688.9608 636.1377,689.1828 635.4457,689.4828 C634.7357,689.7828 633.8747,690.0828 632.8307,690.3768 C631.7867,690.6768 630.5867,690.9438 629.2237,691.1718 C627.8407,691.3868 626.3207,691.4978 624.6247,691.4978 C618.4157,691.4978 613.7457,689.7638 610.6247,686.2738 C607.4907,682.7968 605.9287,677.9698 605.9287,671.7998 C605.9287,668.9168 606.3067,666.2688 607.0467,663.8618 C607.7907,661.4488 608.8867,659.3808 610.3247,657.6588 C611.7527,655.9438 613.5367,654.6188 615.6437,653.6738 C617.7507,652.7218 620.2167,652.2518 622.9877,652.2518 C625.5257,652.2518 627.7827,652.6368 629.7777,653.4058 C631.7607,654.1828 633.4567,655.3888 634.8457,657.0328 C636.2287,658.6698 637.3117,660.7698 638.0487,663.3338 C638.8057,665.8898 639.1707,668.9688 639.1707,672.5498 L639.1707,673.7438 L612.6267,673.7438 C612.8747,677.2718 613.9937,680.1298 615.9887,682.3278 C617.9717,684.5118 621.0247,685.6018 625.1467,685.6018 C627.7367,685.6018 629.8627,685.3728 631.5257,684.9298 C633.1957,684.4928 634.3767,684.1408 635.0677,683.8928 L636.8617,688.8108 Z" id="Fill-23" fill="#124191" sketch:type="MSShapeGroup" mask="url(#mask-2)"></path>
            </g>
        </g>
    </g>
</svg>