<?xml version="1.0" encoding="UTF-8" standalone="no"?>
<svg width="903px" height="268px" viewBox="0 0 903 268" version="1.1" xmlns="http://www.w3.org/2000/svg" xmlns:xlink="http://www.w3.org/1999/xlink" xmlns:sketch="http://www.bohemiancoding.com/sketch/ns">
    <!-- Generator: Sketch 3.3.3 (12072) - http://www.bohemiancoding.com/sketch -->
    <title>Untitled</title>
    <desc>Created with Sketch.</desc>
    <defs></defs>
    <g id="Page-1" stroke="none" stroke-width="1" fill="none" fill-rule="evenodd" sketch:type="MSPage">
        <g id="mozilla_wordmark_CS4" sketch:type="MSLayerGroup" transform="translate(0.000000, 7.000000)" fill="#4E5051">
            <path d="M37.526,66.578 C40.231,70.754 41.424,74.479 42.935,82.338 C53.514,72.012 66.559,66.578 80.797,66.578 C93.656,66.578 104.209,70.754 112.375,79.277 C114.575,81.413 116.697,84.169 118.527,86.874 C132.737,72.319 145.464,66.578 162.513,66.578 C174.655,66.578 186.163,70.209 193.19,76.255 C201.966,83.839 204.749,92.957 204.749,114.185 L204.749,224.628 L165.297,224.628 L165.297,122.098 C165.297,103.512 163.097,99.918 152.517,99.918 C144.934,99.918 134.276,105.09 125.526,112.977 L125.526,224.628 L87.027,224.628 L87.027,123.555 C87.027,104.175 84.218,99.625 72.923,99.625 C65.419,99.625 55.025,103.512 46.276,111.439 L46.276,224.628 L6.558,224.628 L6.558,116.29 C6.558,93.859 5.02,84.169 0.752,76.548 L37.526,66.578" id="Fill-1" sketch:type="MSShapeGroup"></path>
            <path d="M276.895,112.048 C274.11,120.268 272.627,131.179 272.627,146.663 C272.627,164.519 274.455,177.937 277.769,185.797 C281.428,194.296 290.577,198.538 298.396,198.538 C316.003,198.538 323.533,182.776 323.533,146.068 C323.533,125.119 320.801,111.439 315.367,104.441 C311.467,99.323 305.132,96.275 297.814,96.275 C288.084,96.275 280.182,102.318 276.895,112.048 L276.895,112.048 Z M349.992,89.619 C362.401,104.175 367.943,121.156 367.943,146.333 C367.943,173.032 361.819,191.271 348.428,206.412 C336.657,219.749 321.146,227.969 297.23,227.969 C254.994,227.969 227.446,196.403 227.446,147.578 C227.446,98.71 255.285,66.232 297.23,66.232 C319.369,66.232 336.657,73.843 349.992,89.619 L349.992,89.619 Z" id="Fill-2" sketch:type="MSShapeGroup"></path>
            <path d="M498.708,69.283 L498.708,97.199 L430.092,196.403 L501.387,196.403 L491.656,224.628 L377.33,224.628 L377.33,199.453 L450.376,97.813 L383.426,97.813 L383.426,69.283 L498.708,69.283" id="Fill-3" sketch:type="MSShapeGroup"></path>
            <path d="M562.69,65.623 L562.69,224.628 L522.042,224.628 L522.042,72.012 L562.69,65.623 L562.69,65.623 Z M567.461,26.514 C567.461,40.49 556.351,51.65 542.3,51.65 C528.697,51.65 517.51,40.49 517.51,26.514 C517.51,12.568 529.07,1.313 542.986,1.313 C556.616,1.313 567.461,12.568 567.461,26.514 L567.461,26.514 Z" id="Fill-4" sketch:type="MSShapeGroup"></path>
            <path d="M636.715,40.49 L636.715,161.525 C636.715,188.263 637.034,191.857 639.474,196.099 C641.011,198.855 644.298,200.342 647.693,200.342 C649.151,200.342 650.025,200.342 652.226,199.783 L659.173,224.029 C652.226,226.747 643.716,228.262 634.915,228.262 C617.573,228.262 603.627,220.092 598.799,207.074 C595.751,199.174 595.088,194.296 595.088,172.157 L595.088,56.209 C595.088,35.9 594.56,23.491 593.045,9.479 L634.622,0.08 C636.079,8.566 636.715,18.587 636.715,40.49" id="Fill-5" sketch:type="MSShapeGroup"></path>
            <path d="M721.028,40.49 L721.028,161.525 C721.028,188.263 721.375,191.857 723.868,196.099 C725.298,198.855 728.585,200.342 731.981,200.342 C733.518,200.342 734.446,200.342 736.593,199.783 L743.515,224.029 C736.593,226.747 728.081,228.262 719.252,228.262 C701.941,228.262 687.968,220.092 683.116,207.074 C680.014,199.174 679.509,194.296 679.509,172.157 L679.509,56.209 C679.509,35.9 678.901,23.491 677.335,9.479 L718.855,0.08 C720.527,8.566 721.028,18.587 721.028,40.49" id="Fill-6" sketch:type="MSShapeGroup"></path>
            <path d="M837.505,156.673 C809.4,156.673 799.538,161.79 799.538,180.376 C799.538,192.465 807.227,200.658 817.539,200.658 C825.096,200.658 832.734,196.708 838.753,190.053 L839.416,156.673 L837.505,156.673 L837.505,156.673 Z M784.821,75.061 C799.936,68.671 812.93,65.966 827.246,65.966 C853.389,65.966 871.259,75.646 877.382,92.957 C879.398,99.323 880.326,104.175 880.141,120.876 L879.158,173.032 L879.158,175.787 C879.158,192.465 881.917,198.855 893.8,207.633 L872.214,232.555 C862.719,228.578 854.264,221.579 850.311,213.716 C847.316,216.779 843.948,219.749 840.872,221.896 C833.343,227.36 822.341,230.408 809.612,230.408 C775.014,230.408 756.216,212.775 756.216,181.887 C756.216,145.418 781.457,128.407 830.876,128.407 C833.847,128.407 836.657,128.407 840.025,128.753 L840.025,122.417 C840.025,105.09 836.657,99.323 821.704,99.323 C808.818,99.323 793.519,105.658 776.867,116.913 L759.554,87.776 C767.8,82.604 773.873,79.596 784.821,75.061 L784.821,75.061 Z" id="Fill-7" sketch:type="MSShapeGroup"></path>
        </g>
    </g>
</svg>