<?xml version="1.0" encoding="UTF-8" standalone="no"?>
<svg width="526px" height="126px" viewBox="0 0 526 126" version="1.1" xmlns="http://www.w3.org/2000/svg" xmlns:xlink="http://www.w3.org/1999/xlink" xmlns:sketch="http://www.bohemiancoding.com/sketch/ns">
    <!-- Generator: Sketch 3.3.3 (12072) - http://www.bohemiancoding.com/sketch -->
    <title>Slice 1</title>
    <desc>Created with Sketch.</desc>
    <defs>
        <path id="path-1" d="M0.06,0.066 L525.865,0.066 L525.865,125.94 L0.06,125.94 L0.06,0.066 Z"></path>
    </defs>
    <g id="Page-1" stroke="none" stroke-width="1" fill="none" fill-rule="evenodd" sketch:type="MSPage">
        <g id="Vector_Basic_Logo" sketch:type="MSLayerGroup">
            <path d="M141.831,55.986 L157.924,55.986 C166.877,55.986 180.539,55.322 180.539,39.353 C180.539,24.048 167.81,24.048 160.761,24.048 L141.831,24.048 L141.831,55.986 L141.831,55.986 Z M128.302,13.097 L161.036,13.097 C172.945,13.097 181.083,13.777 187.711,20.945 C192.583,25.947 194.877,32.586 194.877,39.884 C194.877,47.33 192.447,53.695 187.175,58.968 C182.021,64.105 175.268,67.369 157.661,67.369 L141.831,67.369 L141.831,110.796 L128.302,110.796 L128.302,13.097 L128.302,13.097 Z" id="Fill-1" fill="#3A3F45" sketch:type="MSShapeGroup"></path>
            <path d="M229.96,77.371 C224.813,77.371 205.471,77.371 205.471,91.179 C205.471,95.507 208.166,102.951 219.541,102.951 C226.035,102.951 230.907,100.384 234.029,95.644 C236.873,91.047 237.001,87.252 237.268,77.777 C234.965,77.504 233.076,77.371 229.96,77.371 L229.96,77.371 Z M238.759,110.796 C237.807,107.423 237.533,104.171 237.533,100.644 C231.455,111.888 222.249,112.968 216.556,112.968 C200.991,112.968 192.623,104.171 192.623,92.937 C192.623,87.517 194.499,78.863 204.525,73.045 C211.832,68.992 222.66,68.585 228.068,68.585 C231.311,68.585 233.35,68.72 237.268,68.992 C237.268,60.593 237.268,56.933 234.842,53.963 C232.268,50.574 226.715,49.496 223.053,49.496 C210.207,49.496 209.527,58.295 209.385,61.002 L196.686,61.002 C197.077,57.492 197.483,52.75 201.405,48.142 C206.563,42.461 216.155,40.836 223.327,40.836 C233.209,40.836 243.764,43.939 247.423,50.851 C249.603,54.914 249.726,58.16 249.726,61.273 L249.178,93.748 C249.178,94.826 249.326,103.9 250.265,110.796 L238.759,110.796 L238.759,110.796 Z" id="Fill-2" fill="#3A3F45" sketch:type="MSShapeGroup"></path>
            <path d="M260.939,13.097 L273.649,13.097 L273.649,110.796 L260.939,110.796 L260.939,13.097 Z" id="Fill-3" fill="#3A3F45" sketch:type="MSShapeGroup"></path>
            <path d="M319.581,77.371 C314.435,77.371 295.091,77.371 295.091,91.179 C295.091,95.507 297.798,102.951 309.165,102.951 C315.664,102.951 320.531,100.384 323.648,95.644 C326.481,91.047 326.615,87.252 326.892,77.777 C324.602,77.504 322.7,77.371 319.581,77.371 L319.581,77.371 Z M328.384,110.796 C327.443,107.423 327.167,104.171 327.167,100.644 C321.073,111.888 311.868,112.968 306.201,112.968 C290.626,112.968 282.224,104.171 282.224,92.937 C282.224,87.517 284.131,78.863 294.146,73.045 C301.456,68.992 312.271,68.585 317.692,68.585 C320.931,68.585 322.972,68.72 326.892,68.992 C326.892,60.593 326.892,56.933 324.459,53.963 C321.884,50.574 316.336,49.496 312.688,49.496 C299.831,49.496 299.162,58.295 299.024,61.002 L286.295,61.002 C286.701,57.492 287.106,52.75 291.031,48.142 C296.169,42.461 305.792,40.836 312.954,40.836 C322.842,40.836 333.378,43.939 337.04,50.851 C339.206,54.914 339.339,58.16 339.339,61.273 L338.802,93.748 C338.802,94.826 338.938,103.9 339.883,110.796 L328.384,110.796 L328.384,110.796 Z" id="Fill-4" fill="#3A3F45" sketch:type="MSShapeGroup"></path>
            <path d="M350.739,50.718 L350.607,42.859 L363.325,42.859 L363.462,53.836 C364.945,50.99 369.811,41.509 385.243,41.509 C391.32,41.509 409.88,43.816 409.88,64.652 L409.88,110.796 L396.88,110.796 L396.88,67.631 C396.88,63.162 396.337,59.103 393.227,55.986 C389.966,52.875 385.511,51.394 381.188,51.394 C371.979,51.394 363.462,58.027 363.462,71.683 L363.462,110.796 L350.739,110.796 L350.739,50.718" id="Fill-5" fill="#3A3F45" sketch:type="MSShapeGroup"></path>
            <path d="M413.854,42.859 L425.896,42.859 L425.896,28.381 L438.475,24.326 L438.475,42.859 L453.63,42.859 L453.63,52.195 L438.475,52.195 L438.475,92.67 C438.475,96.047 438.475,101.74 447.548,101.74 C450.12,101.74 452.544,101.33 453.63,101.054 L453.63,110.935 C451.331,111.341 447.68,111.736 443.071,111.736 C431.438,111.736 425.896,108.369 425.896,97.271 L425.896,52.195 L413.854,52.195 L413.854,42.859" id="Fill-6" fill="#3A3F45" sketch:type="MSShapeGroup"></path>
            <path d="M463.928,42.859 L476.665,42.859 L476.665,110.796 L463.928,110.796 L463.928,42.859 Z M462.573,13.097 L477.867,13.097 L477.867,27.304 L462.573,27.304 L462.573,13.097 Z" id="Fill-7" fill="#3A3F45" sketch:type="MSShapeGroup"></path>
            <path d="M488.384,56.666 C488.384,52.07 488.107,47.33 487.693,42.859 L500.556,42.859 L500.828,55.986 C503.256,46.521 511.386,43.408 517.067,42.597 C520.862,42.054 523.706,42.185 525.865,42.328 L525.865,54.775 C525.196,54.513 524.381,54.365 523.428,54.238 C522.479,54.099 521.271,54.099 519.776,54.099 C504.758,54.099 501.224,63.027 501.224,74.666 L501.224,110.796 L488.384,110.796 L488.384,56.666" id="Fill-8" fill="#3A3F45" sketch:type="MSShapeGroup"></path>
            <g id="Group-12">
                <mask id="mask-2" sketch:name="Clip 10" fill="white">
                    <use xlink:href="#path-1"></use>
                </mask>
                <g id="Clip-10"></g>
                <path d="M49.699,80.763 C31.492,80.763 16.732,66.001 16.732,47.795 C16.732,29.588 31.492,14.828 49.699,14.828 C67.907,14.828 82.668,29.588 82.668,47.795 C82.668,66.001 67.907,80.763 49.699,80.763 L49.699,80.763 Z M49.701,0.066 C23.367,0.066 2.019,21.414 2.019,47.748 C2.019,74.082 23.367,95.429 49.701,95.429 C76.034,95.429 97.383,74.082 97.383,47.748 C97.383,21.414 76.034,0.066 49.701,0.066 L49.701,0.066 Z" id="Fill-9" fill="#3A3F45" sketch:type="MSShapeGroup" mask="url(#mask-2)"></path>
                <path d="M92.321,91.248 L49.701,109.652 L7.081,91.248 L0,104.82 L49.701,126 L99.401,104.82 L92.321,91.248" id="Fill-11" fill="#3A3F45" sketch:type="MSShapeGroup" mask="url(#mask-2)"></path>
            </g>
        </g>
    </g>
</svg>