<svg style="display: none;"><symbol fill="currentColor" viewBox="0 0 200 200" id="svg-jsconfeu-googleplus"><title>jsconfeu-googleplus</title> <g> <path d="M104.9,17.4c-3.8,0-47.5,0-47.5,0S9.3,18.6,9.3,59.3s42,36,42,36s0,6.1,0,10.3s5.6,2.8,6.3,11.2
		c-2.8,0-58.4-1.5-58.4,35.4c0,36.9,49,35.1,49,35.1s56.6,2.6,56.6-43.2c0-27.4-32.3-36.3-32.3-47.3c0-11.1,24.3-14.3,24.3-40.2
		c0-15.6-1.4-25-13.7-30.5C83.2,22.1,104.9,24.6,104.9,17.4z M89.6,147.2c1,14.3-14.1,27-33.7,28.3c-19.6,1.3-36.3-9.2-37.2-23.5
		c-1-14.3,14.1-27,33.7-28.3C72,122.4,88.6,132.9,89.6,147.2z M60.7,85.5C49.1,88.7,36,78,31.6,61.6C27.1,45.3,33,29.5,44.6,26.3
		c11.7-3.2,24.7,7.5,29.2,23.8C78.3,66.5,72.4,82.3,60.7,85.5z"/> <polygon points="166.3,45.1 166.3,12 145.8,12 145.8,45.1 112.8,45.1 112.8,65.6 145.8,65.6 145.8,98.6 166.3,98.6 
		166.3,65.6 199.3,65.6 199.3,45.1 	"/> </g> </symbol><symbol fill="currentColor" viewBox="0 0 200 200" id="svg-jsconfeu-heart"><title>jsconfeu-heart</title> <path d="M100,191.5c7.9-7.9,52.9-52.9,81.1-81.1c25.2-25.2,24.7-62,1.8-84.8c-22.9-22.8-60-22.7-82.8,0.2
	c-22.8-22.9-59.9-23-82.8-0.2c-22.9,22.8-23.5,59.6,1.8,84.8C47.1,138.5,92.1,183.6,100,191.5z"/> </symbol><symbol fill="currentColor" viewBox="0 0 480 90" id="svg-jsconfeu-logo"><title>jsconfeu-logo</title><path d="M20.5 62.8c0 9.8-0.1 14.6-7.5 22c-3 3-4.7 3.8-6.5 3.8c-3.8 0-6.5-3.4-6.5-6.2c0-2.6 2.3-3.7 4.1-5.5 c3.8-3.8 3.8-8.3 3.8-14.3V32.6c0-2.2 0-3.8 1-5c1-1.3 2.6-1.8 5.4-1.8s4.4 0.6 5.4 1.8c1 1.3 1 2.8 1 5V62.8z"/><path d="M55.2 49.5c4.2 2.8 7.9 6.7 7.9 13.5c0 10.2-8.5 15.9-18.7 15.9c-3.6 0-7.5-0.7-10.9-2.4 c-2.6-1.3-4.6-3-4.6-5.8c0-2.6 1.9-6.1 5.1-6.1c3.2 0 5.7 3.7 10.6 3.7c3.5 0 5.9-1.8 5.9-4.7c0-3.1-2.9-4.9-6.4-6.7 c-6.1-3.1-14.4-6.9-14.4-16.4c0-9.3 8-15.2 18-15.2c7.1 0 14.6 3 14.6 7.8c0 2.6-2.2 5.9-5.3 5.9c-2.9 0-5.5-3-9.5-3 c-3.1 0-5 1.7-5 3.8C42.3 43.9 49.5 45.7 55.2 49.5z"/><path d="M94.8 67.4c2.2 0 4.1-0.4 6.1-1.2c2.4-1 3.9-2.1 5.6-2.1c3.3 0 5.1 3.9 5.1 6.3c0 2-1.3 3.7-3.6 5.1 c-3.7 2.2-9.1 3.3-13.9 3.3c-14.7 0-26.2-9.9-26.2-26.9c0-18 12.7-26.9 26.5-26.9c5 0 10.3 1.2 13.6 3.2c2.5 1.5 3.6 3.2 3.6 5.2 c0 2.5-1.7 6.4-5.1 6.4c-1.8 0-3.4-1-6-2.1c-2-0.8-4-1.3-6.3-1.3c-7.1 0-13.5 4.6-13.5 15.1C80.7 62.6 87.4 67.4 94.8 67.4z"/><path d="M143 25c16.8 0 27.4 11.5 27.4 26.9c0 15.7-10.9 27.2-27.7 27.2c-16.8 0-27.4-11.5-27.4-26.9 C115.4 36.4 126.3 25 143 25z M142.9 68.2c9 0 14.7-5.9 14.7-16.2c0-10.3-5.8-16.3-14.7-16.3c-9 0-14.7 5.9-14.7 16.2 C128.2 62.3 134 68.2 142.9 68.2z"/><path d="M191.2 71.5c0 2.2 0 3.7-1 5c-1 1.2-2.5 1.9-5.1 1.9c-2.7 0-4.2-0.7-5.2-1.9c-1-1.3-1-2.8-1-5v-41 c0-3 2.2-5 6.7-5c4.6 0 6.4 2 8.5 4.7l20.7 27.1V32.6c0-2.2 0-3.7 1-5c1-1.2 2.5-1.9 5.1-1.9c2.7 0 4.2 0.7 5.2 1.9c1 1.3 1 2.7 1 5 v41c0 3.4-2.2 5.1-5.9 5.1c-3.8 0-5.7-1.8-7.9-4.6l-22.1-28.3V71.5z"/><path d="M251.1 71.5c0 2.2 0 3.7-1 5c-1 1.3-2.6 1.9-5.2 1.9c-2.6 0-4.3-0.6-5.3-1.9c-1-1.3-1-2.8-1-5V32 c0-4.2 1.7-5.8 5.9-5.8h18.5c2.2 0 3.6 0 4.9 0.9c1.2 0.9 1.9 2.3 1.9 4.7c0 2.5-0.7 3.9-1.9 4.8c-1.3 0.9-2.7 0.9-4.9 0.9h-12v9.3 h9.8c2.2 0 3.6 0 4.9 0.9c1.2 0.9 1.9 2.2 1.9 4.6c0 2.5-0.7 3.8-1.9 4.7c-1.3 0.9-2.7 0.9-4.9 0.9h-9.8V71.5z"/><path d="M276.2 78.7c-4.3 0-7.1-2.8-7.1-7.1c0-4.2 2.8-7.1 7.1-7.1c4.3 0 7.1 2.9 7.1 7.1 C283.3 75.9 280.5 78.7 276.2 78.7z"/><path d="M304 45.4h8.7c2.2 0 3.7 0 4.9 0.8c1 0.6 1.9 2 1.9 4.6c0 2.6-1 3.9-1.9 4.6c-1.2 0.8-2.7 0.8-4.9 0.8H304 v11.1h13.4c2.2 0 3.7 0 4.9 0.8c1 0.6 1.9 2 1.9 4.6c0 2.6-1 3.9-1.9 4.6c-1.2 0.8-2.7 0.8-4.9 0.8h-19.6c-4.3 0-5.9-1.7-5.9-5.9 V32.2c0-4.3 1.6-5.9 5.9-5.9h18c2.2 0 3.7 0 4.9 0.8c1 0.6 1.9 2 1.9 4.6c0 2.6-1 3.9-1.9 4.6c-1.2 0.8-2.7 0.8-4.9 0.8H304V45.4z"/><path d="M363.4 65c2.2-2.7 2.3-6.4 2.3-9.3V32.6c0-2.2 0-3.8 1-5c1-1.3 2.6-1.8 5.3-1.8s4.3 0.6 5.3 1.8 c1 1.3 1 2.8 1 5V55c0 5.5 0 11.7-4.6 17.1c-3.4 4-9.1 6.9-18.7 6.9c-9.7 0-15.1-3-18.5-6.9c-4.6-5.5-4.6-11.5-4.6-17.2V32.6 c0-2.2 0-3.8 1-5c1-1.3 2.6-1.8 5.4-1.8s4.4 0.6 5.4 1.8c1 1.3 1 2.8 1 5v23.1c0 2.9 0 6.6 2.2 9.3c1.7 2 4.4 3.2 8.4 3.2 C359 68.2 361.7 67 363.4 65z"/><path d="M476.7-0.4h-73.5c-1.8 0-3.3 1.5-3.3 3.3v73.5c0 1.8 1.5 3.3 3.3 3.3h73.5c1.8 0 3.3-1.5 3.3-3.3V2.9 C480 1.1 478.5-0.4 476.7-0.4z M463.9 56.2c-4.8 4.8-12.5 12.5-13.8 13.8c-1.3-1.3-9-9-13.8-13.8c-4.3-4.3-4.2-10.6-0.3-14.4 c3.9-3.9 10.2-3.9 14.1 0c3.9-3.9 10.2-3.9 14.1 0C468.1 45.6 468.2 51.9 463.9 56.2z"/></symbol><symbol fill="currentColor" viewBox="0 0 80 80" id="svg-jsconfeu-logomark"><title>jsconfeu-logomark</title><path d="M76.7 0H3.3C1.5 0 0 1.5 0 3.3v73.4C0 78.5 1.5 80 3.3 80h73.4c1.8 0 3.3-1.5 3.3-3.3V3.3 C80 1.5 78.5 0 76.7 0z M63.9 56.5C59.1 61.3 51.4 69 50.1 70.3c-1.3-1.3-9-9-13.8-13.8c-4.3-4.3-4.2-10.6-0.3-14.4 c3.9-3.9 10.2-3.9 14.1 0c3.9-3.9 10.2-3.9 14.1 0C68.1 45.9 68.2 52.2 63.9 56.5z"/></symbol><symbol fill="currentColor" viewBox="0 0 200 200" id="svg-jsconfeu-map-marker"><title>jsconfeu-map-marker</title> <path d="M161.5,61.2c0-34-27.5-61.5-61.5-61.5c-34,0-61.5,27.6-61.5,61.5c0,11.2,3.1,21.7,8.3,30.8h-0.1L100,199.7
	L153.3,92h-0.1C158.5,83,161.5,72.5,161.5,61.2z M100,92c-17,0-30.8-13.8-30.8-30.8S83,30.5,100,30.5c17,0,30.8,13.8,30.8,30.8
	S117,92,100,92z"/> </symbol><symbol fill="currentColor" viewBox="0 0 80 80" id="svg-jsconfeu-smilie"><title>jsconfeu-smilie</title> <path d="M40,0C17.9,0,0,17.9,0,40s17.9,40,40,40c22.1,0,40-17.9,40-40S62.1,0,40,0z M14,32c0-3.3,2.7-6,6-6
	c3.3,0,6,2.7,6,6c0,3.3-2.7,6-6,6C16.7,38,14,35.3,14,32z M63.6,53.8C63.1,54.8,58,64,40,64c-18,0-23.1-9.2-23.6-10.2
	c-1-2-0.2-4.4,1.8-5.4c2-1,4.3-0.2,5.3,1.7C23.8,50.5,27.2,56,40,56c13,0,16.3-5.6,16.5-5.9c1.1-1.9,3.5-2.6,5.4-1.6
	C63.8,49.5,64.5,51.9,63.6,53.8z M60,38c-3.3,0-6-2.7-6-6c0-3.3,2.7-6,6-6c3.3,0,6,2.7,6,6C66,35.3,63.3,38,60,38z"/> </symbol><symbol fill="currentColor" viewBox="0 0 200 200" id="svg-jsconfeu-twitter"><title>jsconfeu-twitter</title> <path d="M199.3,37.4c-7.4,3.2-15.3,5.5-23.6,6.4c8.5-5.1,15-13.1,18-22.7c-7.9,4.7-16.7,8.1-26.1,10
	c-7.5-8-18.1-13-30-13c-22.7,0-41,18.4-41,41c0,3.2,0.3,6.3,1.1,9.3c-34.1-1.7-64.3-18-84.6-42.9c-3.5,6.1-5.6,13.1-5.6,20.6
	c0,14.2,7.2,26.8,18.3,34.2c-6.7-0.2-13.1-2.1-18.6-5.1c0,0.2,0,0.3,0,0.5c0,19.9,14.1,36.5,32.9,40.2c-3.4,1-7.1,1.5-10.8,1.5
	c-2.7,0-5.2-0.3-7.7-0.7c5.2,16.3,20.4,28.2,38.3,28.5c-14.1,11-31.7,17.6-51,17.6c-3.3,0-6.6-0.2-9.8-0.6
	c18.1,11.7,39.7,18.4,62.9,18.4c75.5,0,116.7-62.5,116.7-116.8c0-1.8,0-3.5-0.1-5.3C186.8,52.9,193.8,45.6,199.3,37.4z"/> </symbol><symbol fill="currentColor" viewBox="0 0 200 200" id="svg-jsconfeu-youtube"><title>jsconfeu-youtube</title> <g> <path id="jsconfeu-youtube-The_Sharpness" opacity="0.12" fill-rule="evenodd" clip-rule="evenodd" d="M79.3,69.7l47.4,31.6l6.6-3.5L79.3,69.7z"/> <g id="jsconfeu-youtube-Lozenge"> <g> <path d="M198,60c0,0-2-13.8-8-19.9c-7.6-8-16.1-8-20-8.5c-28-2-70-2-70-2H100c0,0-42,0-70,2
				c-3.9,0.5-12.4,0.5-20,8.5C4,46.2,2,60,2,60S0,76.2,0,92.4v15.2c0,16.2,2,32.4,2,32.4s2,13.8,7.9,19.9c7.6,8,17.6,7.7,22.1,8.5
				c16,1.5,68,2,68,2s42-0.1,70-2.1c3.9-0.5,12.4-0.5,20-8.5c6-6.1,8-19.9,8-19.9s2-16.2,2-32.4V92.4C200,76.2,198,60,198,60z
				 M79.4,125.9l0-56.2l54,28.2L79.4,125.9z"/> </g> </g> </g> </symbol></svg>