<svg xmlns="http://www.w3.org/2000/svg" xmlns:xlink="http://www.w3.org/1999/xlink" version="1.1" id="Layer_1" x="0px" y="0px" viewBox="0 0 480 90" enable-background="new 0 0 480 90" xml:space="preserve"><style>.style0{fill:	#FFFFFF;}</style><path d="M20.5 62.8c0 9.8-0.1 14.6-7.5 22c-3 3-4.7 3.8-6.5 3.8c-3.8 0-6.5-3.4-6.5-6.2c0-2.6 2.3-3.7 4.1-5.5 c3.8-3.8 3.8-8.3 3.8-14.3V32.6c0-2.2 0-3.8 1-5c1-1.3 2.6-1.8 5.4-1.8s4.4 0.6 5.4 1.8c1 1.3 1 2.8 1 5V62.8z" class="style0"/><path d="M55.2 49.5c4.2 2.8 7.9 6.7 7.9 13.5c0 10.2-8.5 15.9-18.7 15.9c-3.6 0-7.5-0.7-10.9-2.4 c-2.6-1.3-4.6-3-4.6-5.8c0-2.6 1.9-6.1 5.1-6.1c3.2 0 5.7 3.7 10.6 3.7c3.5 0 5.9-1.8 5.9-4.7c0-3.1-2.9-4.9-6.4-6.7 c-6.1-3.1-14.4-6.9-14.4-16.4c0-9.3 8-15.2 18-15.2c7.1 0 14.6 3 14.6 7.8c0 2.6-2.2 5.9-5.3 5.9c-2.9 0-5.5-3-9.5-3 c-3.1 0-5 1.7-5 3.8C42.3 43.9 49.5 45.7 55.2 49.5z" class="style0"/><path d="M94.8 67.4c2.2 0 4.1-0.4 6.1-1.2c2.4-1 3.9-2.1 5.6-2.1c3.3 0 5.1 3.9 5.1 6.3c0 2-1.3 3.7-3.6 5.1 c-3.7 2.2-9.1 3.3-13.9 3.3c-14.7 0-26.2-9.9-26.2-26.9c0-18 12.7-26.9 26.5-26.9c5 0 10.3 1.2 13.6 3.2c2.5 1.5 3.6 3.2 3.6 5.2 c0 2.5-1.7 6.4-5.1 6.4c-1.8 0-3.4-1-6-2.1c-2-0.8-4-1.3-6.3-1.3c-7.1 0-13.5 4.6-13.5 15.1C80.7 62.6 87.4 67.4 94.8 67.4z" class="style0"/><path d="M143 25c16.8 0 27.4 11.5 27.4 26.9c0 15.7-10.9 27.2-27.7 27.2c-16.8 0-27.4-11.5-27.4-26.9 C115.4 36.4 126.3 25 143 25z M142.9 68.2c9 0 14.7-5.9 14.7-16.2c0-10.3-5.8-16.3-14.7-16.3c-9 0-14.7 5.9-14.7 16.2 C128.2 62.3 134 68.2 142.9 68.2z" class="style0"/><path d="M191.2 71.5c0 2.2 0 3.7-1 5c-1 1.2-2.5 1.9-5.1 1.9c-2.7 0-4.2-0.7-5.2-1.9c-1-1.3-1-2.8-1-5v-41 c0-3 2.2-5 6.7-5c4.6 0 6.4 2 8.5 4.7l20.7 27.1V32.6c0-2.2 0-3.7 1-5c1-1.2 2.5-1.9 5.1-1.9c2.7 0 4.2 0.7 5.2 1.9c1 1.3 1 2.7 1 5 v41c0 3.4-2.2 5.1-5.9 5.1c-3.8 0-5.7-1.8-7.9-4.6l-22.1-28.3V71.5z" class="style0"/><path d="M251.1 71.5c0 2.2 0 3.7-1 5c-1 1.3-2.6 1.9-5.2 1.9c-2.6 0-4.3-0.6-5.3-1.9c-1-1.3-1-2.8-1-5V32 c0-4.2 1.7-5.8 5.9-5.8h18.5c2.2 0 3.6 0 4.9 0.9c1.2 0.9 1.9 2.3 1.9 4.7c0 2.5-0.7 3.9-1.9 4.8c-1.3 0.9-2.7 0.9-4.9 0.9h-12v9.3 h9.8c2.2 0 3.6 0 4.9 0.9c1.2 0.9 1.9 2.2 1.9 4.6c0 2.5-0.7 3.8-1.9 4.7c-1.3 0.9-2.7 0.9-4.9 0.9h-9.8V71.5z" class="style0"/><path d="M276.2 78.7c-4.3 0-7.1-2.8-7.1-7.1c0-4.2 2.8-7.1 7.1-7.1c4.3 0 7.1 2.9 7.1 7.1 C283.3 75.9 280.5 78.7 276.2 78.7z" class="style0"/><path d="M304 45.4h8.7c2.2 0 3.7 0 4.9 0.8c1 0.6 1.9 2 1.9 4.6c0 2.6-1 3.9-1.9 4.6c-1.2 0.8-2.7 0.8-4.9 0.8H304 v11.1h13.4c2.2 0 3.7 0 4.9 0.8c1 0.6 1.9 2 1.9 4.6c0 2.6-1 3.9-1.9 4.6c-1.2 0.8-2.7 0.8-4.9 0.8h-19.6c-4.3 0-5.9-1.7-5.9-5.9 V32.2c0-4.3 1.6-5.9 5.9-5.9h18c2.2 0 3.7 0 4.9 0.8c1 0.6 1.9 2 1.9 4.6c0 2.6-1 3.9-1.9 4.6c-1.2 0.8-2.7 0.8-4.9 0.8H304V45.4z" class="style0"/><path d="M363.4 65c2.2-2.7 2.3-6.4 2.3-9.3V32.6c0-2.2 0-3.8 1-5c1-1.3 2.6-1.8 5.3-1.8s4.3 0.6 5.3 1.8 c1 1.3 1 2.8 1 5V55c0 5.5 0 11.7-4.6 17.1c-3.4 4-9.1 6.9-18.7 6.9c-9.7 0-15.1-3-18.5-6.9c-4.6-5.5-4.6-11.5-4.6-17.2V32.6 c0-2.2 0-3.8 1-5c1-1.3 2.6-1.8 5.4-1.8s4.4 0.6 5.4 1.8c1 1.3 1 2.8 1 5v23.1c0 2.9 0 6.6 2.2 9.3c1.7 2 4.4 3.2 8.4 3.2 C359 68.2 361.7 67 363.4 65z" class="style0"/><path d="M476.7-0.4h-73.5c-1.8 0-3.3 1.5-3.3 3.3v73.5c0 1.8 1.5 3.3 3.3 3.3h73.5c1.8 0 3.3-1.5 3.3-3.3V2.9 C480 1.1 478.5-0.4 476.7-0.4z M463.9 56.2c-4.8 4.8-12.5 12.5-13.8 13.8c-1.3-1.3-9-9-13.8-13.8c-4.3-4.3-4.2-10.6-0.3-14.4 c3.9-3.9 10.2-3.9 14.1 0c3.9-3.9 10.2-3.9 14.1 0C468.1 45.6 468.2 51.9 463.9 56.2z" class="style0"/></svg>