<svg xmlns="http://www.w3.org/2000/svg" xmlns:xlink="http://www.w3.org/1999/xlink" version="1.1" id="Layer_1" x="0px" y="0px" viewBox="0 0 80 80" enable-background="new 0 0 80 80" xml:space="preserve"><style>.style0{fill:	#FFFFFF;}</style><path d="M76.7 0H3.3C1.5 0 0 1.5 0 3.3v73.4C0 78.5 1.5 80 3.3 80h73.4c1.8 0 3.3-1.5 3.3-3.3V3.3 C80 1.5 78.5 0 76.7 0z M63.9 56.5C59.1 61.3 51.4 69 50.1 70.3c-1.3-1.3-9-9-13.8-13.8c-4.3-4.3-4.2-10.6-0.3-14.4 c3.9-3.9 10.2-3.9 14.1 0c3.9-3.9 10.2-3.9 14.1 0C68.1 45.9 68.2 52.2 63.9 56.5z" class="style0"/></svg>